<mxfile host="Electron" agent="Mozilla/5.0 (Windows NT 10.0; Win64; x64) AppleWebKit/537.36 (KHTML, like Gecko) draw.io/26.0.9 Chrome/128.0.6613.186 Electron/32.2.5 Safari/537.36" version="26.0.9">
  <diagram name="Page-1" id="pjstvyzu2ZDBrOIpRf-x">
    <mxGraphModel dx="1900" dy="621" grid="1" gridSize="10" guides="1" tooltips="1" connect="1" arrows="1" fold="1" page="1" pageScale="1" pageWidth="850" pageHeight="1100" math="0" shadow="0">
      <root>
        <mxCell id="0" />
        <mxCell id="1" parent="0" />
        <mxCell id="BUlGVMFvP0wRYZS2Phxo-13" style="edgeStyle=orthogonalEdgeStyle;rounded=0;orthogonalLoop=1;jettySize=auto;html=1;entryX=0.5;entryY=0;entryDx=0;entryDy=0;startArrow=ERmandOne;startFill=0;endArrow=ERmandOne;endFill=0;strokeWidth=2;" edge="1" parent="1" source="BUlGVMFvP0wRYZS2Phxo-1" target="BUlGVMFvP0wRYZS2Phxo-4">
          <mxGeometry relative="1" as="geometry" />
        </mxCell>
        <mxCell id="BUlGVMFvP0wRYZS2Phxo-1" value="STOC BILETE CUMPARATE" style="shape=ext;margin=3;double=1;whiteSpace=wrap;html=1;align=center;fontStyle=1;fillColor=#1ba1e2;fontColor=#ffffff;strokeColor=#006EAF;" vertex="1" parent="1">
          <mxGeometry x="320" y="410" width="200" height="100" as="geometry" />
        </mxCell>
        <mxCell id="BUlGVMFvP0wRYZS2Phxo-9" style="edgeStyle=orthogonalEdgeStyle;rounded=0;orthogonalLoop=1;jettySize=auto;html=1;entryX=0.5;entryY=0;entryDx=0;entryDy=0;curved=0;startArrow=ERmandOne;startFill=0;endArrow=ERmandOne;endFill=0;strokeWidth=2;" edge="1" parent="1" source="BUlGVMFvP0wRYZS2Phxo-2" target="BUlGVMFvP0wRYZS2Phxo-1">
          <mxGeometry relative="1" as="geometry" />
        </mxCell>
        <mxCell id="BUlGVMFvP0wRYZS2Phxo-2" value="EVIDENTA CLIENTI" style="rounded=1;arcSize=10;whiteSpace=wrap;html=1;align=center;fontStyle=1;fillColor=#1ba1e2;fontColor=#ffffff;strokeColor=#006EAF;" vertex="1" parent="1">
          <mxGeometry x="335" y="40" width="170" height="60" as="geometry" />
        </mxCell>
        <mxCell id="BUlGVMFvP0wRYZS2Phxo-14" style="edgeStyle=orthogonalEdgeStyle;rounded=0;orthogonalLoop=1;jettySize=auto;html=1;exitX=0;exitY=0.5;exitDx=0;exitDy=0;entryX=1;entryY=0.5;entryDx=0;entryDy=0;endArrow=ERmany;endFill=0;startArrow=ERmandOne;startFill=0;strokeWidth=2;" edge="1" parent="1" source="BUlGVMFvP0wRYZS2Phxo-3" target="BUlGVMFvP0wRYZS2Phxo-1">
          <mxGeometry relative="1" as="geometry" />
        </mxCell>
        <mxCell id="BUlGVMFvP0wRYZS2Phxo-3" value="&lt;div&gt;STOC BILETE&lt;/div&gt;" style="rounded=1;arcSize=10;whiteSpace=wrap;html=1;align=center;fontStyle=1;fillColor=#1ba1e2;fontColor=#ffffff;strokeColor=#006EAF;" vertex="1" parent="1">
          <mxGeometry x="790" y="430" width="170" height="60" as="geometry" />
        </mxCell>
        <mxCell id="BUlGVMFvP0wRYZS2Phxo-4" value="&lt;div&gt;EVIDENTA CASTIGATORI&lt;/div&gt;" style="rounded=1;arcSize=10;whiteSpace=wrap;html=1;align=center;fontStyle=1;fillColor=#1ba1e2;fontColor=#ffffff;strokeColor=#006EAF;" vertex="1" parent="1">
          <mxGeometry x="335" y="740" width="170" height="60" as="geometry" />
        </mxCell>
        <mxCell id="BUlGVMFvP0wRYZS2Phxo-15" style="edgeStyle=orthogonalEdgeStyle;rounded=0;orthogonalLoop=1;jettySize=auto;html=1;entryX=0;entryY=0.5;entryDx=0;entryDy=0;endArrow=ERmany;endFill=0;startArrow=ERmandOne;startFill=0;strokeWidth=2;" edge="1" parent="1" source="BUlGVMFvP0wRYZS2Phxo-5" target="BUlGVMFvP0wRYZS2Phxo-4">
          <mxGeometry relative="1" as="geometry" />
        </mxCell>
        <mxCell id="BUlGVMFvP0wRYZS2Phxo-5" value="&lt;div&gt;STOC PREMII&lt;/div&gt;" style="rounded=1;arcSize=10;whiteSpace=wrap;html=1;align=center;fontStyle=1;fillColor=#1ba1e2;fontColor=#ffffff;strokeColor=#006EAF;" vertex="1" parent="1">
          <mxGeometry x="-15" y="740" width="170" height="60" as="geometry" />
        </mxCell>
        <mxCell id="BUlGVMFvP0wRYZS2Phxo-24" style="edgeStyle=orthogonalEdgeStyle;rounded=0;orthogonalLoop=1;jettySize=auto;html=1;entryX=0;entryY=0.25;entryDx=0;entryDy=0;endArrow=none;startFill=0;curved=1;" edge="1" parent="1" source="BUlGVMFvP0wRYZS2Phxo-17" target="BUlGVMFvP0wRYZS2Phxo-2">
          <mxGeometry relative="1" as="geometry" />
        </mxCell>
        <mxCell id="BUlGVMFvP0wRYZS2Phxo-17" value="PK_IDEVIDENTA_CLIENTI" style="ellipse;whiteSpace=wrap;html=1;align=center;" vertex="1" parent="1">
          <mxGeometry y="10" width="170" height="60" as="geometry" />
        </mxCell>
        <mxCell id="BUlGVMFvP0wRYZS2Phxo-25" style="edgeStyle=orthogonalEdgeStyle;rounded=0;orthogonalLoop=1;jettySize=auto;html=1;entryX=0;entryY=0.75;entryDx=0;entryDy=0;endArrow=none;startFill=0;curved=1;" edge="1" parent="1" source="BUlGVMFvP0wRYZS2Phxo-18" target="BUlGVMFvP0wRYZS2Phxo-2">
          <mxGeometry relative="1" as="geometry" />
        </mxCell>
        <mxCell id="BUlGVMFvP0wRYZS2Phxo-18" value="NUME" style="ellipse;whiteSpace=wrap;html=1;align=center;" vertex="1" parent="1">
          <mxGeometry x="20" y="100" width="100" height="40" as="geometry" />
        </mxCell>
        <mxCell id="BUlGVMFvP0wRYZS2Phxo-19" value="PRENUME" style="ellipse;whiteSpace=wrap;html=1;align=center;" vertex="1" parent="1">
          <mxGeometry x="180" y="190" width="100" height="40" as="geometry" />
        </mxCell>
        <mxCell id="BUlGVMFvP0wRYZS2Phxo-27" style="edgeStyle=orthogonalEdgeStyle;rounded=0;orthogonalLoop=1;jettySize=auto;html=1;entryX=0.75;entryY=1;entryDx=0;entryDy=0;endArrow=none;startFill=0;curved=1;" edge="1" parent="1" source="BUlGVMFvP0wRYZS2Phxo-20" target="BUlGVMFvP0wRYZS2Phxo-2">
          <mxGeometry relative="1" as="geometry" />
        </mxCell>
        <mxCell id="BUlGVMFvP0wRYZS2Phxo-20" value="CNP" style="ellipse;whiteSpace=wrap;html=1;align=center;" vertex="1" parent="1">
          <mxGeometry x="440" y="190" width="100" height="40" as="geometry" />
        </mxCell>
        <mxCell id="BUlGVMFvP0wRYZS2Phxo-31" style="edgeStyle=orthogonalEdgeStyle;rounded=0;orthogonalLoop=1;jettySize=auto;html=1;entryX=1;entryY=0.75;entryDx=0;entryDy=0;endArrow=none;startFill=0;curved=1;" edge="1" parent="1" source="BUlGVMFvP0wRYZS2Phxo-21" target="BUlGVMFvP0wRYZS2Phxo-2">
          <mxGeometry relative="1" as="geometry" />
        </mxCell>
        <mxCell id="BUlGVMFvP0wRYZS2Phxo-21" value="EMAIL" style="ellipse;whiteSpace=wrap;html=1;align=center;" vertex="1" parent="1">
          <mxGeometry x="620" y="180" width="100" height="40" as="geometry" />
        </mxCell>
        <mxCell id="BUlGVMFvP0wRYZS2Phxo-29" style="edgeStyle=orthogonalEdgeStyle;rounded=0;orthogonalLoop=1;jettySize=auto;html=1;entryX=1;entryY=0.5;entryDx=0;entryDy=0;endArrow=none;startFill=0;curved=1;" edge="1" parent="1" source="BUlGVMFvP0wRYZS2Phxo-22" target="BUlGVMFvP0wRYZS2Phxo-2">
          <mxGeometry relative="1" as="geometry" />
        </mxCell>
        <mxCell id="BUlGVMFvP0wRYZS2Phxo-22" value="TELEFON" style="ellipse;whiteSpace=wrap;html=1;align=center;" vertex="1" parent="1">
          <mxGeometry x="650" y="80" width="100" height="40" as="geometry" />
        </mxCell>
        <mxCell id="BUlGVMFvP0wRYZS2Phxo-30" style="edgeStyle=orthogonalEdgeStyle;rounded=0;orthogonalLoop=1;jettySize=auto;html=1;entryX=1;entryY=0.25;entryDx=0;entryDy=0;endArrow=none;startFill=0;curved=1;" edge="1" parent="1" source="BUlGVMFvP0wRYZS2Phxo-23" target="BUlGVMFvP0wRYZS2Phxo-2">
          <mxGeometry relative="1" as="geometry" />
        </mxCell>
        <mxCell id="BUlGVMFvP0wRYZS2Phxo-23" value="NR_EXTRAS" style="ellipse;whiteSpace=wrap;html=1;align=center;" vertex="1" parent="1">
          <mxGeometry x="660" y="20" width="100" height="40" as="geometry" />
        </mxCell>
        <mxCell id="BUlGVMFvP0wRYZS2Phxo-26" style="edgeStyle=orthogonalEdgeStyle;rounded=0;orthogonalLoop=1;jettySize=auto;html=1;entryX=0.088;entryY=1;entryDx=0;entryDy=0;entryPerimeter=0;endArrow=none;startFill=0;curved=1;" edge="1" parent="1" source="BUlGVMFvP0wRYZS2Phxo-19" target="BUlGVMFvP0wRYZS2Phxo-2">
          <mxGeometry relative="1" as="geometry" />
        </mxCell>
        <mxCell id="BUlGVMFvP0wRYZS2Phxo-40" style="edgeStyle=orthogonalEdgeStyle;rounded=0;orthogonalLoop=1;jettySize=auto;html=1;entryX=0;entryY=0.25;entryDx=0;entryDy=0;endArrow=none;startFill=0;curved=1;" edge="1" parent="1" source="BUlGVMFvP0wRYZS2Phxo-32" target="BUlGVMFvP0wRYZS2Phxo-1">
          <mxGeometry relative="1" as="geometry" />
        </mxCell>
        <mxCell id="BUlGVMFvP0wRYZS2Phxo-32" value="PK_IDSTOC_BILETE_CUMPARATE" style="ellipse;whiteSpace=wrap;html=1;align=center;" vertex="1" parent="1">
          <mxGeometry x="140" y="300" width="210" height="80" as="geometry" />
        </mxCell>
        <mxCell id="BUlGVMFvP0wRYZS2Phxo-33" value="SERIE_TICKET" style="ellipse;whiteSpace=wrap;html=1;align=center;" vertex="1" parent="1">
          <mxGeometry x="110" y="430" width="125" height="50" as="geometry" />
        </mxCell>
        <mxCell id="BUlGVMFvP0wRYZS2Phxo-34" value="VALIDARE" style="ellipse;whiteSpace=wrap;html=1;align=center;" vertex="1" parent="1">
          <mxGeometry x="135" y="540" width="100" height="40" as="geometry" />
        </mxCell>
        <mxCell id="BUlGVMFvP0wRYZS2Phxo-35" value="DATA_CUMPARARE" style="ellipse;whiteSpace=wrap;html=1;align=center;" vertex="1" parent="1">
          <mxGeometry x="250" y="595" width="130" height="50" as="geometry" />
        </mxCell>
        <mxCell id="BUlGVMFvP0wRYZS2Phxo-36" value="FK_IDEVIDENTA_CLIENTI" style="ellipse;whiteSpace=wrap;html=1;align=center;" vertex="1" parent="1">
          <mxGeometry x="460" y="590" width="170" height="60" as="geometry" />
        </mxCell>
        <mxCell id="BUlGVMFvP0wRYZS2Phxo-45" style="edgeStyle=orthogonalEdgeStyle;rounded=0;orthogonalLoop=1;jettySize=auto;html=1;entryX=1;entryY=0.75;entryDx=0;entryDy=0;endArrow=none;startFill=0;curved=1;" edge="1" parent="1" source="BUlGVMFvP0wRYZS2Phxo-37" target="BUlGVMFvP0wRYZS2Phxo-1">
          <mxGeometry relative="1" as="geometry" />
        </mxCell>
        <mxCell id="BUlGVMFvP0wRYZS2Phxo-37" value="FK_IDSTOC_BILETE" style="ellipse;whiteSpace=wrap;html=1;align=center;" vertex="1" parent="1">
          <mxGeometry x="550" y="500" width="150" height="60" as="geometry" />
        </mxCell>
        <mxCell id="BUlGVMFvP0wRYZS2Phxo-48" style="edgeStyle=orthogonalEdgeStyle;rounded=0;orthogonalLoop=1;jettySize=auto;html=1;entryX=1;entryY=0.25;entryDx=0;entryDy=0;endArrow=none;startFill=0;curved=1;" edge="1" parent="1" source="BUlGVMFvP0wRYZS2Phxo-38" target="BUlGVMFvP0wRYZS2Phxo-1">
          <mxGeometry relative="1" as="geometry" />
        </mxCell>
        <mxCell id="BUlGVMFvP0wRYZS2Phxo-38" value="CANTITATE_BILETE" style="ellipse;whiteSpace=wrap;html=1;align=center;" vertex="1" parent="1">
          <mxGeometry x="570" y="360" width="150" height="50" as="geometry" />
        </mxCell>
        <mxCell id="BUlGVMFvP0wRYZS2Phxo-39" value="TOTAL_PLATA" style="ellipse;whiteSpace=wrap;html=1;align=center;" vertex="1" parent="1">
          <mxGeometry x="460" y="320" width="100" height="40" as="geometry" />
        </mxCell>
        <mxCell id="BUlGVMFvP0wRYZS2Phxo-41" style="edgeStyle=orthogonalEdgeStyle;rounded=0;orthogonalLoop=1;jettySize=auto;html=1;entryX=-0.008;entryY=0.58;entryDx=0;entryDy=0;entryPerimeter=0;endArrow=none;startFill=0;curved=1;" edge="1" parent="1" source="BUlGVMFvP0wRYZS2Phxo-33" target="BUlGVMFvP0wRYZS2Phxo-1">
          <mxGeometry relative="1" as="geometry" />
        </mxCell>
        <mxCell id="BUlGVMFvP0wRYZS2Phxo-42" style="edgeStyle=orthogonalEdgeStyle;rounded=0;orthogonalLoop=1;jettySize=auto;html=1;entryX=0;entryY=0.75;entryDx=0;entryDy=0;endArrow=none;startFill=0;curved=1;" edge="1" parent="1" source="BUlGVMFvP0wRYZS2Phxo-34" target="BUlGVMFvP0wRYZS2Phxo-1">
          <mxGeometry relative="1" as="geometry">
            <mxPoint x="270" y="510" as="targetPoint" />
          </mxGeometry>
        </mxCell>
        <mxCell id="BUlGVMFvP0wRYZS2Phxo-43" style="edgeStyle=orthogonalEdgeStyle;rounded=0;orthogonalLoop=1;jettySize=auto;html=1;entryX=0.356;entryY=1.012;entryDx=0;entryDy=0;entryPerimeter=0;endArrow=none;startFill=0;curved=1;" edge="1" parent="1" source="BUlGVMFvP0wRYZS2Phxo-35" target="BUlGVMFvP0wRYZS2Phxo-1">
          <mxGeometry relative="1" as="geometry" />
        </mxCell>
        <mxCell id="BUlGVMFvP0wRYZS2Phxo-44" style="edgeStyle=orthogonalEdgeStyle;rounded=0;orthogonalLoop=1;jettySize=auto;html=1;entryX=0.796;entryY=1.036;entryDx=0;entryDy=0;entryPerimeter=0;endArrow=none;startFill=0;curved=1;" edge="1" parent="1" source="BUlGVMFvP0wRYZS2Phxo-36" target="BUlGVMFvP0wRYZS2Phxo-1">
          <mxGeometry relative="1" as="geometry" />
        </mxCell>
        <mxCell id="BUlGVMFvP0wRYZS2Phxo-47" style="edgeStyle=orthogonalEdgeStyle;rounded=0;orthogonalLoop=1;jettySize=auto;html=1;entryX=0.84;entryY=-0.036;entryDx=0;entryDy=0;entryPerimeter=0;endArrow=none;startFill=0;curved=1;" edge="1" parent="1" source="BUlGVMFvP0wRYZS2Phxo-39" target="BUlGVMFvP0wRYZS2Phxo-1">
          <mxGeometry relative="1" as="geometry" />
        </mxCell>
        <mxCell id="BUlGVMFvP0wRYZS2Phxo-53" style="edgeStyle=orthogonalEdgeStyle;rounded=0;orthogonalLoop=1;jettySize=auto;html=1;entryX=0.5;entryY=0;entryDx=0;entryDy=0;endArrow=none;startFill=0;curved=1;" edge="1" parent="1" source="BUlGVMFvP0wRYZS2Phxo-49" target="BUlGVMFvP0wRYZS2Phxo-3">
          <mxGeometry relative="1" as="geometry" />
        </mxCell>
        <mxCell id="BUlGVMFvP0wRYZS2Phxo-49" value="PK_IDSTOC_BILETE" style="ellipse;whiteSpace=wrap;html=1;align=center;" vertex="1" parent="1">
          <mxGeometry x="800" y="300" width="130" height="60" as="geometry" />
        </mxCell>
        <mxCell id="BUlGVMFvP0wRYZS2Phxo-50" value="TIP_TICKET" style="ellipse;whiteSpace=wrap;html=1;align=center;" vertex="1" parent="1">
          <mxGeometry x="700" y="595" width="100" height="40" as="geometry" />
        </mxCell>
        <mxCell id="BUlGVMFvP0wRYZS2Phxo-51" value="PRET" style="ellipse;whiteSpace=wrap;html=1;align=center;" vertex="1" parent="1">
          <mxGeometry x="790" y="650" width="100" height="40" as="geometry" />
        </mxCell>
        <mxCell id="BUlGVMFvP0wRYZS2Phxo-52" value="CANTITATE" style="ellipse;whiteSpace=wrap;html=1;align=center;" vertex="1" parent="1">
          <mxGeometry x="860" y="570" width="100" height="40" as="geometry" />
        </mxCell>
        <mxCell id="BUlGVMFvP0wRYZS2Phxo-54" style="edgeStyle=orthogonalEdgeStyle;rounded=0;orthogonalLoop=1;jettySize=auto;html=1;entryX=0.158;entryY=1.033;entryDx=0;entryDy=0;entryPerimeter=0;endArrow=none;startFill=0;curved=1;" edge="1" parent="1" source="BUlGVMFvP0wRYZS2Phxo-50" target="BUlGVMFvP0wRYZS2Phxo-3">
          <mxGeometry relative="1" as="geometry" />
        </mxCell>
        <mxCell id="BUlGVMFvP0wRYZS2Phxo-55" style="edgeStyle=orthogonalEdgeStyle;rounded=0;orthogonalLoop=1;jettySize=auto;html=1;entryX=0.36;entryY=1.047;entryDx=0;entryDy=0;entryPerimeter=0;endArrow=none;startFill=0;curved=1;" edge="1" parent="1" source="BUlGVMFvP0wRYZS2Phxo-51" target="BUlGVMFvP0wRYZS2Phxo-3">
          <mxGeometry relative="1" as="geometry" />
        </mxCell>
        <mxCell id="BUlGVMFvP0wRYZS2Phxo-56" style="edgeStyle=orthogonalEdgeStyle;rounded=0;orthogonalLoop=1;jettySize=auto;html=1;entryX=0.706;entryY=1;entryDx=0;entryDy=0;entryPerimeter=0;endArrow=none;startFill=0;curved=1;" edge="1" parent="1" source="BUlGVMFvP0wRYZS2Phxo-52" target="BUlGVMFvP0wRYZS2Phxo-3">
          <mxGeometry relative="1" as="geometry" />
        </mxCell>
        <mxCell id="BUlGVMFvP0wRYZS2Phxo-57" value="PK_IDEVIDENTA_CASTIGATORI" style="ellipse;whiteSpace=wrap;html=1;align=center;" vertex="1" parent="1">
          <mxGeometry x="580" y="720" width="190" height="60" as="geometry" />
        </mxCell>
        <mxCell id="BUlGVMFvP0wRYZS2Phxo-58" value="FK_IDSTOC_BILETE_CUMPARATE" style="ellipse;whiteSpace=wrap;html=1;align=center;" vertex="1" parent="1">
          <mxGeometry x="575" y="810" width="225" height="60" as="geometry" />
        </mxCell>
        <mxCell id="BUlGVMFvP0wRYZS2Phxo-60" style="edgeStyle=orthogonalEdgeStyle;rounded=0;orthogonalLoop=1;jettySize=auto;html=1;entryX=0.5;entryY=1;entryDx=0;entryDy=0;endArrow=none;startFill=0;curved=1;" edge="1" parent="1" source="BUlGVMFvP0wRYZS2Phxo-59" target="BUlGVMFvP0wRYZS2Phxo-4">
          <mxGeometry relative="1" as="geometry" />
        </mxCell>
        <mxCell id="BUlGVMFvP0wRYZS2Phxo-59" value="FK_IDSTOC_PREMII" style="ellipse;whiteSpace=wrap;html=1;align=center;" vertex="1" parent="1">
          <mxGeometry x="380" y="880" width="150" height="50" as="geometry" />
        </mxCell>
        <mxCell id="BUlGVMFvP0wRYZS2Phxo-61" style="edgeStyle=orthogonalEdgeStyle;rounded=0;orthogonalLoop=1;jettySize=auto;html=1;entryX=0.794;entryY=1;entryDx=0;entryDy=0;entryPerimeter=0;endArrow=none;startFill=0;curved=1;" edge="1" parent="1" source="BUlGVMFvP0wRYZS2Phxo-58" target="BUlGVMFvP0wRYZS2Phxo-4">
          <mxGeometry relative="1" as="geometry" />
        </mxCell>
        <mxCell id="BUlGVMFvP0wRYZS2Phxo-62" style="edgeStyle=orthogonalEdgeStyle;rounded=0;orthogonalLoop=1;jettySize=auto;html=1;entryX=0.985;entryY=0.4;entryDx=0;entryDy=0;entryPerimeter=0;endArrow=none;startFill=0;curved=1;" edge="1" parent="1" source="BUlGVMFvP0wRYZS2Phxo-57" target="BUlGVMFvP0wRYZS2Phxo-4">
          <mxGeometry relative="1" as="geometry" />
        </mxCell>
        <mxCell id="BUlGVMFvP0wRYZS2Phxo-67" style="edgeStyle=orthogonalEdgeStyle;rounded=0;orthogonalLoop=1;jettySize=auto;html=1;entryX=0;entryY=0.5;entryDx=0;entryDy=0;endArrow=none;startFill=0;curved=1;" edge="1" parent="1" source="BUlGVMFvP0wRYZS2Phxo-63" target="BUlGVMFvP0wRYZS2Phxo-5">
          <mxGeometry relative="1" as="geometry" />
        </mxCell>
        <mxCell id="BUlGVMFvP0wRYZS2Phxo-63" value="PK_IDSTOC_PREMII" style="ellipse;whiteSpace=wrap;html=1;align=center;" vertex="1" parent="1">
          <mxGeometry x="-95" y="630" width="140" height="60" as="geometry" />
        </mxCell>
        <mxCell id="BUlGVMFvP0wRYZS2Phxo-64" value="DENUMIRE_PREMIU" style="ellipse;whiteSpace=wrap;html=1;align=center;" vertex="1" parent="1">
          <mxGeometry x="-100" y="850" width="150" height="45" as="geometry" />
        </mxCell>
        <mxCell id="BUlGVMFvP0wRYZS2Phxo-68" style="edgeStyle=orthogonalEdgeStyle;rounded=0;orthogonalLoop=1;jettySize=auto;html=1;entryX=0.75;entryY=0;entryDx=0;entryDy=0;endArrow=none;startFill=0;curved=1;" edge="1" parent="1" source="BUlGVMFvP0wRYZS2Phxo-65" target="BUlGVMFvP0wRYZS2Phxo-5">
          <mxGeometry relative="1" as="geometry" />
        </mxCell>
        <mxCell id="BUlGVMFvP0wRYZS2Phxo-65" value="VALOARE" style="ellipse;whiteSpace=wrap;html=1;align=center;" vertex="1" parent="1">
          <mxGeometry x="100" y="660" width="100" height="40" as="geometry" />
        </mxCell>
        <mxCell id="BUlGVMFvP0wRYZS2Phxo-70" style="edgeStyle=orthogonalEdgeStyle;rounded=0;orthogonalLoop=1;jettySize=auto;html=1;entryX=0.75;entryY=1;entryDx=0;entryDy=0;endArrow=none;startFill=0;curved=1;" edge="1" parent="1" source="BUlGVMFvP0wRYZS2Phxo-66" target="BUlGVMFvP0wRYZS2Phxo-5">
          <mxGeometry relative="1" as="geometry" />
        </mxCell>
        <mxCell id="BUlGVMFvP0wRYZS2Phxo-66" value="CANTITATE" style="ellipse;whiteSpace=wrap;html=1;align=center;" vertex="1" parent="1">
          <mxGeometry x="70" y="860" width="100" height="40" as="geometry" />
        </mxCell>
        <mxCell id="BUlGVMFvP0wRYZS2Phxo-69" style="edgeStyle=orthogonalEdgeStyle;rounded=0;orthogonalLoop=1;jettySize=auto;html=1;entryX=0.131;entryY=1.067;entryDx=0;entryDy=0;entryPerimeter=0;endArrow=none;startFill=0;curved=1;" edge="1" parent="1" source="BUlGVMFvP0wRYZS2Phxo-64" target="BUlGVMFvP0wRYZS2Phxo-5">
          <mxGeometry relative="1" as="geometry" />
        </mxCell>
      </root>
    </mxGraphModel>
  </diagram>
</mxfile>
